<svg xmlns="http://www.w3.org/2000/svg" width="565.3333339956071" height="538"><rect id="backgroundrect" width="100%" height="100%" x="0" y="0" fill="none" stroke="none" class="" style=""/><defs><linearGradient id="a" x1="0%" x2="100%" y1="50%" y2="50%"><stop offset="0%" stop-color="#183866"/><stop offset="100%" stop-color="#1A7FC1"/></linearGradient><linearGradient id="b" x1="-.13%" x2="100%" y1="50.057%" y2="50.057%"><stop offset="0%"/><stop offset="99%" stop-opacity="0"/></linearGradient><linearGradient id="c" x1="176.072%" x2="310.393%" y1="-566.037%" y2="-534.629%"><stop offset="0%"/><stop offset="99%" stop-opacity="0"/></linearGradient><linearGradient id="d" x1="58.928%" x2="52.269%" y1="-257.998%" y2="-277.344%"><stop offset="0%"/><stop offset="99%" stop-opacity="0"/></linearGradient><linearGradient id="e" x1="156.099%" x2="8.109%" y1="-63.273%" y2="-76.114%"><stop offset="0%"/><stop offset="99%" stop-opacity="0"/></linearGradient><linearGradient id="f" x1="2361.044%" x2="2162.651%" y1="-16584.906%" y2="-16647.547%"><stop offset="0%"/><stop offset="99%" stop-opacity="0"/></linearGradient><linearGradient id="g" x1="241.391%" x2="133.142%" y1="-426.052%" y2="-412.195%"><stop offset="0%"/><stop offset="99%" stop-opacity="0"/></linearGradient><linearGradient id="h" x1="106.85%" x2="-35.821%" y1="22.502%" y2="19.27%"><stop offset="0%"/><stop offset="100%" stop-opacity="0"/></linearGradient><linearGradient id="i" x1="14.169%" x2="114.168%" y1="-41.335%" y2="-41.335%"><stop offset="0%" stop-color="#183866"/><stop offset="100%" stop-color="#1A7FC1"/></linearGradient><linearGradient id="j" x1="40.386%" x2="71.43%" y1="39.515%" y2="67.977%"><stop offset="0%"/><stop offset="99%" stop-opacity="0"/></linearGradient><linearGradient id="k" x1="-12.531%" x2="93.689%" y1="44.923%" y2="53.42%"><stop offset="0%"/><stop offset="99%" stop-opacity="0"/></linearGradient><linearGradient id="l" x1="53.702%" x2="43.721%" y1="42.271%" y2="80.595%"><stop offset="0%"/><stop offset="99%" stop-opacity="0"/></linearGradient><linearGradient id="m" x1="190.926%" x2="102.154%" y1="-333.246%" y2="-335.028%"><stop offset="0%"/><stop offset="99%" stop-opacity="0"/></linearGradient><linearGradient id="n" x1="168.578%" x2="111.53%" y1="-126.252%" y2="-126.942%"><stop offset="0%"/><stop offset="99%" stop-opacity="0"/></linearGradient><linearGradient id="o" x1="56.989%" x2="28.128%" y1="43.618%" y2="69.958%"><stop offset="0%"/><stop offset="99%" stop-opacity="0"/></linearGradient><linearGradient id="p" x1="58.095%" x2="57.212%" y1="-1473.571%" y2="-1370.204%"><stop offset="0%"/><stop offset="99%" stop-opacity="0"/></linearGradient><linearGradient id="q" x1="-.04%" x2="99.996%" y1="49.993%" y2="49.993%"><stop offset="0%" stop-color="#ECC4D7"/><stop offset="42%" stop-color="#EFD4D1"/><stop offset="100%" stop-color="#F2EAC9"/></linearGradient><linearGradient id="r" x1="99.032%" x2="199.03%" y1="-163.287%" y2="-163.287%"><stop offset="0%" stop-color="#ECC4D7"/><stop offset="42%" stop-color="#EFD4D1"/><stop offset="100%" stop-color="#F2EAC9"/></linearGradient><linearGradient id="s" x1="124.306%" x2="224.306%" y1="-84.564%" y2="-84.564%"><stop offset="0%" stop-color="#ECC4D7"/><stop offset="42%" stop-color="#EFD4D1"/><stop offset="100%" stop-color="#F2EAC9"/></linearGradient><linearGradient id="t" x1="128.89%" x2="24.06%" y1="100.36%" y2="153.095%"><stop offset="0%" stop-color="#362958" stop-opacity=".501"/><stop offset="100%" stop-color="#34313D" stop-opacity="0"/></linearGradient><linearGradient id="u" x1="3990.942%" x2="3874.36%" y1="-34225.187%" y2="-34268.317%"><stop offset="0%"/><stop offset="99%" stop-opacity="0"/></linearGradient></defs><g class="currentLayer" style=""><title>Layer 1</title><g fill="none" fill-rule="nonzero" id="svg_1" class=""><path fill="#EFF1F7" d="M599.7466749715805,113.88066615009308 c-20.973,-22.385 -37.208,-49.107 -62.275,-67.375 c-39.374,-28.754 -96.041,-31.558 -142.08,-13.494 c-46.04,18.063 -81.905,54.474 -105.544,95.703 c-12.435,21.692 -22.202,45.354 -40.423,63.08 c-15.403,14.975999999999999 -35.648,24.531 -54.843,34.938 c-30.948,16.733 -60.752,36.952 -80.78,64.695 c-20.026,27.743 -28.98,64.18 -16.178,95.446 c8.633000000000001,21.097 26.022,37.883 43.836,53.081 c20.964,17.869 43.496,34.601 69.5,45.248 c32.555,13.246 68.694,16.094 104.134,17.442 c62.828,2.38 125.757,0.6010000000000006 188.319,-5.323 c51.23,-4.844 104.011,-13.113 146.874,-39.88 c60.043,-37.484 91,-106.163 97.97,-173.51 c2.8360000000000003,-26.936 2.118,-54.928 -8.964,-79.92 c-26.504,-59.78 -98.017,-45.798 -139.547,-90.131 z" id="svg_2"/><path fill="#3F3D56" d="M194.9836749715805,224.00066615009308 s-16.6,-2.947 -21.25,8.669 c-4.65,11.616 0,51.733 0,51.733 L235.6666749715805,328.6666661500931 l-40.683,-104.666 z" id="svg_3"/><path fill="#2BD0D0" d="M272.8686749715805,401.39366615009305 l-24.555,7.008 c-3.568,1.01 -7.3100000000000005,-0.9520000000000006 -8.372,-4.386 c-1.047,-3.438 0.987,-7.046 4.55,-8.069 l24.522,-7.014 c3.565,-1.01 7.307,0.9470000000000006 8.372,4.3790000000000004 c1.058,3.433 -0.9600000000000006,7.045 -4.517,8.082 z" id="svg_4"/><circle cx="271.6666749715805" cy="416.6666661500931" r="11" fill="#25233A" id="svg_5"/><circle cx="270.1666749715805" cy="419.1666661500931" r="5.5" fill="#3F3D56" id="svg_6"/><circle cx="226.6666749715805" cy="405.6666661500931" r="11" fill="#25233A" id="svg_7"/><path fill="url(#a)" d="M230.6666749715805,406.1666661500931 a5.5,5.5 0 1 1 -11,0 a5.5,5.5 0 0 1 11,0 z" id="svg_8"/><circle cx="223.6666749715805" cy="420.6666661500931" r="11" fill="#25233A" id="svg_9"/><path fill="#3F3D56" d="M232.6666749715805,421.1666661500931 a5.5,5.5 0 1 1 -11,0 a5.5,5.5 0 0 1 11,0 z" id="svg_10"/><path fill="#2BD0D0" d="M273.7516749715805,412.5406661500931 l-50.787,-10.046 c-3.574,-0.7170000000000006 -5.884,-4.13 -5.168,-7.636 c0.7320000000000007,-3.5 4.21,-5.764 7.785,-5.066 l50.787,10.027 c3.574,0.7170000000000006 5.884,4.13 5.168,7.6370000000000005 c-0.7230000000000006,3.507 -4.204,5.781 -7.785,5.084 z" id="svg_11"/><path fill="#2BD0D0" d="M242.6666749715805,331.6666661500931 h14 v59 c0,3.866 -3.133,7 -6.997,7 a6.999,6.999 0 0 1 -6.996,-7 v-59 H242.6666749715805 z" id="svg_12"/><path fill="#2BD0D0" d="M247.85367497158052,408.3746661500931 l-24.537,7.025 c-3.568,1.014 -7.314,-0.9490000000000006 -8.375,-4.388 c-1.047,-3.44 0.987,-7.05 4.548,-8.074 l24.537,-7.005 c3.564,-1.01 7.304,0.9480000000000006 8.368,4.381 c1.039,3.435 -0.99,7.034 -4.541,8.06 z" id="svg_13"/><path fill="url(#b)" d="M252.6666749715805,407.92666615009307 l-3.125,0.551 a12.89,12.89 0 0 1 -2.875,0.17200000000000001 l1.3050000000000002,-0.22800000000000023 a10.302,10.302 0 0 0 2.507,-0.7550000000000007 l2.188,0.26 z" id="svg_14"/><path fill="url(#c)" d="M277.6666749715805,394.4046661500931 a6.914,6.914 0 0 1 -1.46,4.2620000000000005 L255.6666749715805,394.31666615009306 a7.113,7.113 0 0 0 1.098,-2.462 l12.654,-3.923 a6.201,6.201 0 0 1 4.913,0.5790000000000006 c1.5,0.8670000000000007 2.609,2.324 3.083,4.048 c0.16400000000000023,0.6000000000000006 0.24900000000000017,1.222 0.252,1.846 z" id="svg_15"/><path fill="url(#d)" d="M241.88667497158053,392.7696661500931 a5.776,5.776 0 0 1 -0.22000000000000017,-1.58 V332.6666661500931 h5.943 v63.07 c-0.05900000000000006,0.31000000000000033 -0.04000000000000004,0.6270000000000007 0.05700000000000005,0.93 a9.278,9.278 0 0 0 -2.845,-0.511 c-0.690000000000001,-0.04000000000000004 -1.385,-0.04000000000000004 -2.076,0 l0.4250000000000003,-0.1 c0.262,-0.04000000000000004 -0.9400000000000006,-2.091 -1.283,-3.286 z" opacity=".31" id="svg_16"/><path fill="url(#e)" d="M278.9556749715805,411.4666661500931 c-0.97,0.523 -2.061,0.797 -3.17,0.796 a7.063,7.063 0 0 1 -1.33,-0.13 l-22.407,-4.406 l-1.867,-0.3630000000000003 a6.54,6.54 0 0 1 -2.133,1.055 l-1.11,0.31700000000000034 l-23.025,6.666 c-3.5140000000000002,1.007 -7.202,-0.9430000000000006 -8.247,-4.362 c1.9969999999999999,1.8050000000000002 5.029,1.9729999999999999 7.223,0.401 c2.811,-1.8960000000000008 14.002,-4.743 20.341,-6.257 c2.996,-0.698000000000001 5.288,-3.05 5.848,-6 c0.01600000000000002,-0.17300000000000001 0.04200000000000005,-0.3460000000000005 0.08000000000000008,-0.517 c1.056,1.113 2.997,2.362 6.505,3.423 c8.64,2.589 22.667,4.304 22.667,4.304 s2.532,2.42 0.6250000000000007,5.073 z" opacity=".31" id="svg_17"/><path fill="url(#f)" d="M280.6666749715805,409.6666661500931 a7.6240000000000006,7.6240000000000006 0 0 1 -2,2 a119.75,119.75 0 0 0 2,-2 z" id="svg_18"/><path fill="url(#g)" d="M242.96667497158052,392.2256661500931 a6.82,6.82 0 0 0 1.7000000000000002,3.13 c-0.21000000000000016,0.03900000000000004 -0.4250000000000003,0.09200000000000016 -0.6410000000000008,0.15100000000000016 L222.75467497158047,401.6666661500931 c-3.271,-0.8130000000000006 -5.426,-3.865 -5.044,-7.146 c0.38100000000000034,-3.2800000000000002 3.181,-5.781 6.556,-5.854 a7.14,7.14 0 0 1 1.35,0.132 l17.35,3.427 z" id="svg_19"/><path fill="#503164" d="M275.6666749715805,111.07366615009308 s-0.276,-20.805 -17.075,-19.01 c-16.8,1.7930000000000001 -15.511,-5.095 -22.687,-4.339 c-7.175,0.7570000000000008 -15.51,7.786 -13.117,16.468 c2.395,8.682 -6.332,10.623 -12.064,17.21 c-5.7330000000000005,6.587 1.3490000000000002,11.975999999999999 11.006,18.416 c9.657,6.44 -0.6000000000000006,4.773 5.125,14.955 c5.726,10.181 25.107,-2.825 25.107,-2.825 L275.6666749715805,111.07366615009308 z" id="svg_20"/><path fill="#2BD0D0" d="M139.3306749715805,456.2676661500931 l11.73,0.39900000000000047 v-93.745 s0.5900000000000006,-24.241 23.452,-26.673000000000002 c22.861,-2.431 230.196,-32.466 230.196,-32.466 s8.218,-0.8700000000000007 12.951,14.901 c4.7330000000000005,15.771 9.34,77.787 9.34,77.787 l63.64,8.577 s1.6800000000000006,-109.55 -21.302,-115.595 c-22.981,-6.045 -323.522,24.76 -323.522,24.76 s-22.29,116.352 -6.485,142.055 z" id="svg_21"/><path fill="url(#h)" d="M139.3306749715805,456.2676661500931 l11.73,0.39900000000000047 v-93.745 s0.5900000000000006,-24.241 23.452,-26.673000000000002 c22.861,-2.431 230.196,-32.466 230.196,-32.466 s8.218,-0.8700000000000007 12.951,14.901 c4.7330000000000005,15.771 9.34,77.787 9.34,77.787 l63.64,8.577 s1.6800000000000006,-109.55 -21.302,-115.595 c-22.981,-6.045 -323.522,24.76 -323.522,24.76 s-22.29,116.352 -6.485,142.055 z" opacity=".197" id="svg_22"/><path fill="#2BD0D0" d="M78.6666749715805,325.45066615009307 s5.744,-31.756 46.144,-40.079 l285.183,-32.643 s27.996,-1.1600000000000001 40.804,6.587 c12.808,7.746 31.088,14.168 38.583,49.223 c7.495,35.056 9.286,94.942 9.286,94.942 l-7.09,1.1 s-10.348,-108.44 -21.312,-115.306 c-10.963000000000001,-6.865 -307.402,35.255 -307.402,35.255 s-20.561,4.088 -22.352,34.532 c-1.79,30.443 0,96.605 0,96.605 L78.6666749715805,430.7236661500931 V325.45066615009307 z" id="svg_23"/><path fill="url(#i)" d="M372.09167497158046,265.5106661500931 c-14.762,-1.9 -29.644,-3.276 -44.519,-2.72 c-11.18,0.43300000000000033 -22.286,1.9660000000000002 -33.372,3.493 l-97.775,13.503 c-1.6600000000000001,0.23 -3.55,0.6030000000000006 -4.38,2.044 c-1.592,2.7520000000000002 2.15,5.464 5.182,6.5120000000000005 c32.51,11.256 67.243,22.656 100.708,14.63 c15.3,-3.669 29.511,-11.288 45.03,-13.935 c15.518,-2.6470000000000002 31.448,-0.21000000000000016 46.933,-2.706 c14.557,-2.345 28.417,-9.009 43.172,-9.074 c4.525,0 9.183,0.5770000000000006 13.475,-0.8390000000000006 c4.293,-1.415 8.088,-5.739 6.9,-10.05 c-13.853,-0.4780000000000003 -29.404,-3.007 -42.992,-0.262 c-13.449,2.712 -24.894,-0.5960000000000006 -38.362,-0.5960000000000006 z" opacity=".19" id="svg_24"/><path fill="#2BD0D0" d="M283.6666749715805,281.0466661500931 l0.5700000000000006,2.114 s16.881,10.173 16.775,10.501 c-0.10600000000000002,0.3280000000000004 70.024,-16.24 70.024,-16.24 L372.6666749715805,272.6666661500931 l-89,8.38 z" id="svg_25"/><path fill="url(#j)" d="M283.6666749715805,281.0466661500931 l0.5700000000000006,2.114 s16.881,10.173 16.775,10.501 c-0.10600000000000002,0.3280000000000004 70.024,-16.24 70.024,-16.24 L372.6666749715805,272.6666661500931 l-89,8.38 z" id="svg_26"/><path fill="#2BD0D0" d="M284.6666749715805,281.03066615009305 L346.7736749715805,267.6666661500931 L372.6666749715805,272.72066615009305 L302.1086749715805,289.6666661500931 z" id="svg_27"/><path fill="url(#k)" d="M284.6666749715805,281.03066615009305 L346.7736749715805,267.6666661500931 L372.6666749715805,272.72066615009305 L302.1086749715805,289.6666661500931 z" id="svg_28"/><path fill="#2BD0D0" d="M264.4986749715805,292.15066615009306 l14.457,0.512 s3.672,0.22800000000000023 4.62,-2.717 c0.9500000000000006,-2.9450000000000003 -5.8900000000000015,-9.16 -6.622,-9.277 c-0.7330000000000007,-0.11800000000000012 -19.76,5.22 -17.017,10.556000000000001 l4.562,0.926 z" id="svg_29"/><path fill="url(#l)" d="M264.4986749715805,292.15066615009306 l14.457,0.512 s3.672,0.22800000000000023 4.62,-2.717 c0.9500000000000006,-2.9450000000000003 -5.8900000000000015,-9.16 -6.622,-9.277 c-0.7330000000000007,-0.11800000000000012 -19.76,5.22 -17.017,10.556000000000001 l4.562,0.926 z" id="svg_30"/><path fill="#2BD0D0" d="M95.6666749715805,437.72266615009306 l-7.058,21.677 c-20.473,7.351 -37.88,0 -37.88,0 L45.666674971580505,436.6666661500931 s25.535,8.56 50,1.056 z" id="svg_31"/><path fill="url(#m)" d="M95.6666749715805,437.72266615009306 l-7.058,21.677 c-20.473,7.351 -37.88,0 -37.88,0 L45.666674971580505,436.6666661500931 s25.535,8.56 50,1.056 z" id="svg_32"/><path fill="#2BD0D0" d="M103.6666749715805,417.6666661500931 l-2.284,16.943 l-5.786,3.008 c-24.648,7.42 -50.415,-1.038 -50.415,-1.038 l-4.443,-3.283 L38.666674971580505,417.6666661500931 h65 z" id="svg_33"/><path fill="url(#n)" d="M103.6666749715805,417.6666661500931 l-2.284,16.943 l-5.786,3.008 c-24.648,7.42 -50.415,-1.038 -50.415,-1.038 l-4.443,-3.283 L38.666674971580505,417.6666661500931 h65 z" id="svg_34"/><ellipse cx="71.1666749715805" cy="416.6666661500931" fill="#2BD0D0" rx="32.5" ry="6" id="svg_35"/><ellipse cx="71.1666749715805" cy="416.6666661500931" fill="url(#o)" rx="32.5" ry="6" id="svg_36"/><path fill="#2BD0D0" d="M56.3076749715805,286.69666615009305 c-3.182,-1.5150000000000001 -6.603,-2.6580000000000004 -9.356,-4.87 c-5.547,-4.5 -6.953,-12.248 -8.69,-19.198 c-1.7360000000000002,-6.9510000000000005 -5.097,-14.593 -11.944,-16.587 c-2.5620000000000003,-0.7370000000000007 -5.567,-0.4450000000000004 -7.515,1.3900000000000001 c-2.053,1.933 -2.47,5.11 -1.908,7.914 c0.561,2.8040000000000003 1.928,5.316 2.985,7.974 a36.878,36.878 0 0 1 2.172,19.477 c-0.8650000000000007,5.389 -2.932,10.851 -1.605,16.134 c2.252,8.964 13.47,14.22 13.78,23.457 c0.21200000000000016,6.233 -4.885,12.001 -3.73,18.135 c0.8520000000000006,4.538 5.005,8.08 5.23,12.692 c0.25,5.23 -4.662,9.655 -4.424,14.885 c0.23700000000000004,5.23 5.427,8.725 8.815,12.839 a21.453,21.453 0 0 1 4.827,12.193 c0.17800000000000016,2.791 -0.17900000000000016,5.682 0.7260000000000006,8.327 c0.6600000000000009,1.933 1.98,3.575 3.004,5.316 c1.13,1.8800000000000003 1.9809999999999999,3.914 3.341,5.655 a13.696,13.696 0 0 0 14.725,4.651 c1.05,-6.95 0.132,-14.04 0.4230000000000003,-21.065 c0.5740000000000006,-13.609 5.691,-27.324 2.416,-40.535 c-1.201,-4.844 -3.512,-9.443 -3.922,-14.413 c-0.3630000000000003,-4.44 0.812,-8.838000000000001 1.6310000000000002,-13.217 c1.6900000000000008,-9.044 1.6640000000000001,-18.394 0.97,-27.538 c-0.547,-7.256 -5.618,-10.599 -11.95,-13.616 z" id="svg_37"/><path fill="#2BD0D0" d="M76.41867497158051,322.4336661500931 c-0.05300000000000007,6.062 1.33,12.33 -0.6120000000000007,18.085 c-1.47,4.362 -4.702,7.934 -6.371,12.223 c-3.85,9.899000000000001 1.33,21 0.273,31.57 c-0.44000000000000034,4.354 -1.936,8.537 -2.88,12.813 a51.236,51.236 0 0 0 -0.8510000000000006,16.485 a4.17,4.17 0 0 0 3.325,4.3420000000000005 A51.942,51.942 0 0 0 79.37767497158052,420.6666661500931 a26.638,26.638 0 0 1 3.4450000000000003,-18.59 c5.274,-8.63 15.522,-14.446 17.43,-24.359 c1.29,-6.712 -1.715,-13.524000000000001 -1.502,-20.355 a21.886,21.886 0 0 1 4.482,-12.548 c2.48,-3.227 5.839,-5.723 8.147,-9.07 c5.546,-8.066 3.817,-18.848 2.168,-28.494 c-1.6500000000000008,-9.647 -2.607,-20.748 3.91,-28.057 c2.062,-2.31 4.748,-4.044 6.617,-6.513 c4.163,-5.504 3.112,-13.983 -1.73,-18.902 c-4.84,-4.92 -12.635,-6.28 -19.218,-4.116 a13.86,13.86 0 0 0 -7.01,4.76 c-3.325,4.714 -1.995,11.154 -0.5850000000000006,16.757 c1.23,4.867 2.221,10.483 0.539,15.39 c-1.2570000000000001,3.6510000000000002 -4.443,5.63 -7.15,8.172 a38.903,38.903 0 0 0 -12.502,27.692 z" id="svg_38"/><path fill="#30C59B" d="M69.72867497158052,376.18866615009307 c-0.9380000000000006,6.593 -2.292,13.239 -2.5700000000000003,19.851 v0.6650000000000009 a1.7570000000000001,1.7570000000000001 0 0 1 -0.11100000000000008,0.4790000000000003 a51.684,51.684 0 0 0 -0.8660000000000007,16.501 c0.03600000000000001,0.8930000000000008 0.261,1.7680000000000002 0.6600000000000009,2.566 c-0.03200000000000004,0.279 -0.07200000000000002,0.551 -0.11100000000000008,0.8300000000000006 a13.702,13.702 0 0 1 -14.73,-4.652 c-1.32,-1.741 -2.213,-3.775 -3.342,-5.655 c-1.057,-1.7480000000000002 -2.345,-3.39 -3.005,-5.317 c-0.905,-2.6590000000000007 -0.549,-5.536 -0.7270000000000006,-8.327 a21.453,21.453 0 0 0 -4.828,-12.196 c-3.3890000000000002,-4.087 -8.587,-7.516 -8.818,-12.833 c-0.231,-5.317 4.676,-9.656 4.425,-14.887 c-0.22400000000000023,-4.612 -4.3790000000000004,-8.154 -5.23,-12.693 c-1.157,-6.135 3.962,-11.903 3.731,-18.137 c-0.31000000000000033,-9.238 -11.532,-14.495 -13.785,-23.46 c-1.32,-5.284 0.7400000000000007,-10.747 1.605,-16.136 a36.876,36.876 0 0 0 -2.146,-19.46 c-1.057,-2.6580000000000004 -2.424,-5.163 -2.9859999999999998,-7.975 c-0.561,-2.81 -0.14500000000000016,-5.981 1.909,-7.922 c1.982,-1.834 4.954,-2.126 7.517,-1.389 c6.856,1.994 10.204,9.664 11.948,16.615 c1.7440000000000002,6.952 3.144,14.694 8.692,19.2 c2.742,2.227 6.176,3.356 9.36,4.872 c6.34,3.017 11.413,6.36 11.955,13.55 c0.6600000000000009,9.145 0.7200000000000006,18.496 -0.97,27.541 c-0.8200000000000006,4.38 -1.982,8.78 -1.6320000000000001,13.219 c0.3500000000000003,4.44 2.2720000000000002,8.64 3.527,12.946 c0.139,0.4850000000000003 0.277,0.977 0.39600000000000046,1.469 c1.665,6.839 1.13,13.757 0.132,20.735 z" id="svg_39"/><path fill="url(#p)" d="M66.38467497158052,415.6666661500931 a7.789,7.789 0 0 1 -0.502,-2.488 c-0.4300000000000003,-5.36 -0.21600000000000016,-10.78 0.6370000000000008,-16.047 c0.02300000000000004,-0.15500000000000017 0.05200000000000006,-0.31000000000000033 0.08000000000000008,-0.465 c-0.171,6.346 0.37400000000000033,12.744 -0.21500000000000016,19 z" id="svg_40"/><path fill="#30C59B" d="M124.05967497158053,272.6806661500931 c-1.871,2.47 -4.562,4.202 -6.627,6.513 c-6.527,7.303 -5.568,18.41 -3.916,28.057 c1.6510000000000002,9.646 3.383,20.428 -2.172,28.495 c-2.31,3.3200000000000003 -5.674,5.8420000000000005 -8.159,9.069 a21.865,21.865 0 0 0 -4.49,12.548 c-0.21200000000000016,6.831 2.798,13.643 1.506,20.355 c-1.911,9.913 -12.175,15.742 -17.457,24.36 A26.644,26.644 0 0 0 79.3206749715805,420.6666661500931 a51.824,51.824 0 0 1 -10.064,-2.715 a5.425,5.425 0 0 1 -2.3440000000000003,-1.415 a2.503,2.503 0 0 1 -0.24700000000000016,-0.3450000000000005 a6.232,6.232 0 0 1 -0.699000000000001,-2.55 c-0.5990000000000006,-5.506 -0.3000000000000003,-11.073 0.8860000000000008,-16.484 c0.03300000000000004,-0.16000000000000023 0.07300000000000002,-0.3190000000000004 0.11300000000000009,-0.4780000000000003 c0.9460000000000006,-4.11 2.345,-8.14 2.771,-12.336 a39.84,39.84 0 0 0 -0.16000000000000023,-8.166 c1.006,-6.971 1.545,-13.882 -0.15300000000000016,-20.668 c-0.12000000000000002,-0.4900000000000003 -0.26,-0.982 -0.4,-1.467 c0.127,-0.4250000000000003 0.273,-0.8500000000000006 0.44000000000000034,-1.268 c1.6720000000000006,-4.289 4.909,-7.86 6.38,-12.223 c1.939,-5.756 0.56,-12.023 0.6130000000000007,-18.085 c0.08700000000000012,-10.47 4.823,-20.58 12.429,-27.725 c2.71,-2.542 5.901,-4.52 7.16,-8.172 c1.685,-4.907 0.6660000000000009,-10.523 -0.54,-15.39 c-1.4180000000000001,-5.603 -2.7640000000000002,-12.043 0.5870000000000006,-16.757 c1.665,-2.337 4.29,-3.857 7.02,-4.76 c6.567,-2.165 14.407,-0.804 19.249,4.116 c4.8420000000000005,4.92 5.868,13.43 1.6980000000000008,18.902 z" id="svg_41"/><path fill="#2BD0D0" d="M242.23967497158048,167.81266615009307 s-27.817,4.3 -40.684,34.977 c-12.867,30.677 -6.176,68.683 -5.9510000000000005,72.027 c0.22500000000000023,3.3440000000000003 39.428,17.85 50.635,17.85 c11.208,0 13.542,-11.229 13.542,-11.229 l-19.803,-8.433 l60.17,-6.949 h10.804 l-5.9510000000000005,10.032 s11.743,1.23 19.592,1.5110000000000001 c7.848,0.281 13.178,-15.24 14.057,-22.959 c0.8800000000000007,-7.7170000000000005 -34.667,-75.458 -39.977,-79.47 c-5.3100000000000005,-4.013 -19.717,-13.817 -56.434,-7.357 z" id="svg_42"/><path fill="url(#q)" d="M275.0586749715805,110.44266615009307 s5.032,2.83 4.58,11.985 c-0.453,9.155 -3.29,22.932 -6.1530000000000005,26.5 c-2.864,3.5700000000000003 -12.88,4.968 -12.88,4.968 s5.464,12.977 9.53,16.326 c4.066,3.349 -4.086,15.687 -12.015,11.639 c-7.928,-4.049 -17.12,-14.216 -17.12,-14.216 s6.612,-12.245 4.376,-18.69 c-2.235,-6.445 -10.772,-29.064 -4.376,-35.242 c6.396,-6.18 20.186,-15.035 34.058,-3.27 z" id="svg_43"/><path fill="#FFF" opacity=".25" d="M231.0006749715805,211.66666615009308 L226.6666749715805,265.7216661500931 L239.9046749715805,272.6666661500931 L250.6666749715805,270.7886661500931 l-13.428,-16.504 zM300.6666749715805,208.66666615009308 s17.909,42.077 9.97,57 l-6.116,-1.1600000000000001 L300.6666749715805,208.66666615009308 z" id="svg_44"/><path fill="url(#r)" d="M252.1886749715805,279.7116661500931 s-6.766,5.775 -3.746,10.267 c3.02,4.491 6.625,4.363 9.631,2.355 c3.006,-2.009 8.911,-6.776 15.946,-4.588 c7.035,2.188 8.744,3.58 8.744,3.58 s3.705,-2.316 2.744,-4.639 c-0.9620000000000006,-2.323 -8.32,-9.85 -10.452,-10.825 c-2.132,-0.975 -10.983,2.021 -10.983,2.021 s-6.503,-1.758 -11.884,1.83 z" id="svg_45"/><path fill="url(#s)" d="M311.8576749715805,267.2646661500931 s-6.385,0.7590000000000008 -7.998,4.957 c-1.613,4.198 -2.193,4.71 -2.193,4.71 s3.606,0.690000000000001 5.106,-1.264 s3.059,-1.133 3.059,-1.133 l-0.4470000000000004,2.507 s9.798,1.477 14.224,-0.11000000000000008 c4.425,-1.589 6.325,-3.453 6.325,-3.453 l1.733,-4.24 s-4.18,-3.03 -7.332,-3.5 c-3.152,-0.4700000000000003 -12.477,1.526 -12.477,1.526 z" id="svg_46"/><path fill="#25233A" d="M345.55967497158053,311.6666661500931 s21.934,16.687 19.984,39.259 c-1.949,22.572 -4.813,56.087 -4.813,56.087 s-8.846,3.722 -14.707,0 c-5.862,-3.722 -9.411,-54.65 -12.315,-59.513 c-2.904,-4.864 -20.375,-26.79 -39.042,-28.679 L345.55967497158053,311.6666661500931 z" id="svg_47"/><path fill="#3F3D56" d="M235.6666749715805,327.72466615009307 s10.444,9.895 29.062,13.002 c18.619,3.107 27.297,5.7 32.987,21.605 c5.69,15.905 11.148,50.137 12.935,53.963 c1.786,3.826 9.382,1.874 9.382,1.874 s4.296,-4.8950000000000005 4.296,-32.114 c0,-37.946 2.6550000000000002,-45.724 -6.913,-55.256 c-9.568,-9.533 -18.272,-12.132 -18.272,-12.132 L235.6666749715805,327.72466615009307 z" id="svg_48"/><path fill="#25233A" d="M310.6666749715805,417.6666661500931 l1.82,14.197 h3.408 s21.948,1.187 22.636,0.6750000000000009 c0.6880000000000009,-0.513 -1.057,-11.243 -9.372,-10.94 c-8.316,0.3040000000000003 -8.861,-2.023 -8.861,-2.023 L310.6666749715805,417.6666661500931 zm37,-9.844 L351.18467497158053,421.6666661500931 l38.437,-5.212 s1.353,-9.093 -10.823,-8.191 c-3.214,0.234 -5.6080000000000005,2.465 -9.471,2.485 c-3.863,0.02000000000000002 -7.563,-1.5430000000000001 -9.511,-4.082 L347.6666749715805,407.8226661500931 z" id="svg_49"/><path fill="#2BD0D0" d="M478.4706749715805,234.00366615009307 l-142.243,7.654 c-3.44,0.18100000000000016 -6.376,-2.47 -6.561,-5.926 V134.1396661500931 c0.003000000000000006,-4.101 3.267,-7.448 7.348,-7.535 l141.661,-2.9370000000000003 a6.835,6.835 0 0 1 4.886,1.917 a6.898,6.898 0 0 1 2.105,4.827 v95.971 c-0.005000000000000006,4.056 -3.164,7.402 -7.196,7.621 z" id="svg_50"/><path fill="#2BD0D0" d="M486.4706749715805,234.00366615009307 l-142.25,7.655 c-3.44,0.17700000000000016 -6.372,-2.478 -6.554,-5.934 V134.1396661500931 c-0.004000000000000005,-4.102 3.26,-7.452 7.3420000000000005,-7.535 l141.68,-2.9370000000000003 c3.777,-0.07 6.898,2.943 6.978,6.738 v95.977 c-0.005000000000000006,4.057 -3.164,7.4030000000000005 -7.196,7.621 z" id="svg_51"/><path fill="url(#t)" d="M486.4706749715805,234.00366615009307 l-142.25,7.655 c-3.44,0.17700000000000016 -6.372,-2.478 -6.554,-5.934 V134.1396661500931 c-0.004000000000000005,-4.102 3.26,-7.452 7.3420000000000005,-7.535 l141.68,-2.9370000000000003 c3.777,-0.07 6.898,2.943 6.978,6.738 v95.977 c-0.005000000000000006,4.057 -3.164,7.4030000000000005 -7.196,7.621 z" id="svg_52"/><path fill="#3A3054" d="M444.43967497158053,272.8046661500931 L408.14467497158057,276.6666661500931 s-11.053,-2.23 -10.455,-3.862 c0.5990000000000006,-1.633 12.156,-3.205 12.156,-3.205 v-65.804 c-0.1,-0.14600000000000016 -1.621,-2.084 -5.789,-3.319 c-0.807,-0.23900000000000016 -1.6280000000000001,-0.4300000000000003 -2.459,-0.5700000000000006 a7.252,7.252 0 0 1 -2.06,-0.6240000000000007 c-2.479,-1.28 0.26,-3.51 4.107,-3.6100000000000003 a9.625,9.625 0 0 1 1.802,0.10600000000000002 h27.913 s10.568,2.973 11.08,17.811 c0.511,14.839 0,59.215 0,59.215 z" id="svg_53"/><path fill="#51466B" d="M414.6666749715805,272.94366615009307 L407.9886749715805,276.6666661500931 s-10.888,-2.23 -10.299,-3.863 c0.5900000000000006,-1.6320000000000001 11.995,-3.205 11.995,-3.205 v-65.809 c-0.138,-0.15200000000000016 -1.807,-1.8980000000000001 -5.703,-3.318 a28.64,28.64 0 0 0 -4.452,-1.195 c-2.442,-1.28 0.255,-3.51 4.046,-3.6100000000000003 c3.228,0.4450000000000004 9.585,4.028 9.998,6.073 c0.4120000000000003,2.044 1.093,71.204 1.093,71.204 z" id="svg_54"/><path fill="url(#u)" d="M279.6666749715805,410.6666661500931 c-0.8810000000000007,1.001 -1.29,1.37 -0.77,0.547 c0.27,-0.15900000000000017 0.527,-0.34200000000000047 0.77,-0.547 z" id="svg_55"/></g></g></svg>